<?xml version="1.0" standalone="no"?>
<!DOCTYPE svg PUBLIC "-//W3C//DTD SVG 20010904//EN"
 "http://www.w3.org/TR/2001/REC-SVG-20010904/DTD/svg10.dtd">
<svg version="1.0" xmlns="http://www.w3.org/2000/svg"
 width="150.000000pt" height="150.000000pt" viewBox="0 0 150.000000 150.000000"
 preserveAspectRatio="xMidYMid meet">

<g transform="translate(0.000000,150.000000) scale(0.100000,-0.100000)"
fill="#000000" stroke="none">
<path d="M614 1291 c-124 -68 -167 -121 -167 -206 1 -83 58 -208 110 -243 21
-13 23 -13 30 4 4 11 14 24 22 30 13 10 12 13 -7 25 -12 8 -22 19 -22 24 0 13
-37 17 -45 6 -2 -5 10 -16 28 -25 31 -17 31 -17 5 -13 -16 2 -28 0 -28 -7 -1
-17 -30 24 -51 72 -10 24 -19 51 -18 60 0 11 2 12 6 4 2 -6 9 -10 14 -6 5 3 9
-3 10 -13 0 -16 1 -16 9 2 8 19 9 19 9 -2 1 -26 9 -28 36 -10 23 16 72 30 59
17 -5 -4 -18 -10 -29 -13 -15 -4 -14 -5 5 -4 31 3 63 53 41 66 -11 7 -11 10 0
15 11 5 11 7 2 12 -7 3 -13 20 -13 38 0 46 -25 76 -63 77 -27 0 -29 2 -12 9
19 8 19 9 1 9 -49 2 113 91 165 91 69 0 184 -77 164 -109 -2 -5 2 -11 10 -15
20 -7 19 -1 -6 44 -49 87 -169 114 -265 61z m-57 -187 c-3 -3 -12 -4 -19 -1
-8 3 -5 6 6 6 11 1 17 -2 13 -5z m11 -244 c7 -11 11 -20 9 -20 -2 0 -12 9 -22
20 -10 11 -14 20 -9 20 5 0 15 -9 22 -20z"/>
<path d="M758 1213 c7 -3 16 -2 19 1 4 3 -2 6 -13 5 -11 0 -14 -3 -6 -6z"/>
<path d="M706 1192 c-3 -5 21 -9 52 -9 42 -1 50 1 32 7 -34 11 -78 12 -84 2z"/>
<path d="M686 1149 c-30 -24 -34 -59 -8 -82 23 -21 54 -22 92 -2 21 11 28 20
23 33 -9 26 -24 42 -54 57 -24 13 -30 12 -53 -6z"/>
<path d="M861 1156 c-23 -13 -28 -37 -22 -117 2 -29 47 -18 59 14 6 15 6 25 1
21 -5 -3 -9 2 -9 10 0 10 6 13 15 10 8 -4 15 -10 15 -14 0 -4 7 -10 15 -14 13
-5 13 -1 -1 26 -13 24 -14 36 -5 49 8 13 8 20 -1 25 -7 4 -8 3 -4 -4 9 -14 1
-15 -22 -3 -11 6 -26 5 -41 -3z"/>
<path d="M638 1130 c-2 -16 -1 -27 3 -25 11 7 18 44 9 50 -4 3 -10 -8 -12 -25z"/>
<path d="M660 1037 c0 -14 29 -19 57 -9 27 9 27 9 -14 13 -24 3 -43 1 -43 -4z"/>
<path d="M910 1005 c-8 -9 -21 -13 -32 -9 -11 3 -36 -5 -63 -20 -44 -26 -93
-34 -110 -17 -17 15 -103 22 -111 9 -4 -7 -3 -13 3 -15 22 -8 48 -32 41 -39
-4 -4 -14 -1 -23 6 -26 21 -16 -5 10 -28 14 -12 25 -27 25 -34 0 -6 -7 -3 -16
8 -14 18 -14 18 -2 -5 36 -65 38 -67 38 -47 0 16 2 17 17 5 15 -12 16 -12 10
3 -4 13 -2 15 10 11 12 -5 14 -3 7 8 -10 16 -12 23 -19 64 l-5 30 10 -31 c15
-49 31 -56 107 -51 79 6 133 16 133 26 0 8 -38 6 -60 -2 -27 -10 -100 -15 -94
-6 3 5 12 9 20 9 16 0 18 9 4 30 -8 12 -10 12 -10 -5 0 -17 -2 -17 -10 -5 -6
10 -10 11 -10 3 0 -7 -4 -13 -10 -13 -5 0 -10 7 -10 15 0 8 -7 15 -15 15 -8 0
-15 5 -15 10 0 7 7 7 20 0 26 -14 73 -7 106 15 18 12 34 14 57 9 l32 -8 -30
-7 c-27 -6 -28 -7 -5 -8 15 0 35 10 49 24 19 21 20 25 6 25 -12 0 -15 6 -11
23 3 12 3 16 0 9 -4 -9 -10 -10 -19 -2 -9 7 -16 6 -25 -5z"/>
<path d="M421 922 c-11 -20 -7 -29 35 -80 27 -31 64 -75 83 -96 20 -22 29 -36
19 -33 -9 3 -22 0 -28 -8 -16 -19 21 -42 80 -51 25 -4 54 -15 65 -25 33 -30
90 -50 103 -37 17 17 -5 38 -41 38 -55 0 -24 8 58 14 132 11 207 26 201 42 -3
8 -1 14 5 14 6 0 7 5 3 11 -6 10 -38 8 -131 -8 -18 -3 -33 -11 -33 -18 0 -7
-5 -15 -11 -17 -18 -6 -159 12 -188 24 -14 6 -33 10 -41 9 -11 -1 -12 0 -2 7
9 6 1 17 -28 41 -31 25 -39 37 -35 54 4 17 -8 37 -48 82 -53 58 -54 59 -66 37z
m79 -87 c19 -19 32 -35 29 -35 -3 0 -20 16 -39 35 -19 19 -32 35 -29 35 3 0
20 -16 39 -35z m463 -152 c-7 -2 -19 -2 -25 0 -7 3 -2 5 12 5 14 0 19 -2 13
-5z m-80 -10 c-7 -2 -19 -2 -25 0 -7 3 -2 5 12 5 14 0 19 -2 13 -5z"/>
<path d="M858 903 c7 -3 16 -2 19 1 4 3 -2 6 -13 5 -11 0 -14 -3 -6 -6z"/>
<path d="M880 850 c-8 -5 -44 -10 -80 -10 -59 -1 -63 -2 -46 -15 19 -15 19
-15 -5 -16 -17 -1 -19 -3 -6 -6 10 -3 16 -10 14 -16 -3 -10 -23 -15 -74 -20
-11 -1 -19 -5 -17 -8 2 -3 38 -4 81 -2 57 3 74 1 63 -6 -19 -14 82 -15 108 -2
9 5 30 14 46 20 16 7 26 14 23 17 -3 3 -12 2 -19 -2 -18 -12 -82 -34 -86 -30
-1 2 15 11 38 20 41 16 51 32 25 42 -8 4 -12 11 -9 16 4 6 -6 8 -27 4 l-34 -6
30 15 c23 11 26 14 10 14 -11 1 -27 -4 -35 -9z"/>
<path d="M680 784 c0 -8 5 -12 10 -9 6 3 10 10 10 16 0 5 -4 9 -10 9 -5 0 -10
-7 -10 -16z"/>
<path d="M373 555 c-17 -12 -23 -26 -23 -56 0 -55 26 -79 84 -77 43 2 44 3 49
42 6 44 1 59 -12 37 -6 -9 -11 -10 -15 -2 -10 15 -43 14 -49 -2 -3 -8 -1 -20
4 -28 8 -12 10 -12 19 1 8 13 10 12 10 -2 0 -13 -8 -18 -25 -18 -29 0 -43 36
-25 69 11 22 44 28 55 11 7 -12 25 -13 25 -2 -1 34 -63 52 -97 27z"/>
<path d="M495 495 l0 -75 33 0 c30 0 32 2 22 21 -7 11 -9 23 -6 26 9 10 34
-16 40 -42 4 -16 13 -25 26 -25 24 0 25 11 4 52 -11 22 -13 33 -5 41 33 33 -6
77 -70 77 l-44 0 0 -75z m89 39 c8 -21 -1 -34 -25 -34 -34 0 -23 45 12 49 4 1
10 -6 13 -15z"/>
<path d="M647 498 c1 -68 3 -73 25 -76 22 -3 23 -1 23 73 0 73 -1 75 -25 75
-25 0 -25 -1 -23 -72z"/>
<path d="M717 488 c1 -46 6 -84 12 -86 15 -5 34 37 28 64 -6 33 4 30 32 -11
13 -19 27 -35 32 -35 5 0 9 24 9 54 0 30 5 58 10 61 15 9 12 35 -5 35 -19 0
-38 -37 -31 -58 5 -13 2 -12 -9 2 -8 11 -15 28 -15 38 0 14 -8 18 -32 18 l-33
0 2 -82z"/>
<path d="M875 545 c-14 -13 -25 -36 -25 -50 0 -56 94 -104 107 -55 4 16 9 18
19 10 10 -9 13 -5 12 19 -1 21 -7 31 -21 35 -22 5 -57 -9 -57 -24 0 -16 22
-23 32 -9 8 12 9 11 5 -1 -6 -22 -51 -19 -55 3 -7 37 7 67 33 67 13 0 27 -4
30 -10 10 -17 25 -11 25 9 0 18 -25 31 -63 31 -10 0 -29 -11 -42 -25z"/>
<path d="M1026 549 c-52 -41 -23 -129 42 -129 62 0 91 92 43 131 -30 24 -52
24 -85 -2z m70 -33 c9 -38 -4 -66 -31 -66 -23 0 -35 17 -35 49 0 42 56 57 66
17z"/>
<path d="M423 383 c-7 -2 -13 -22 -13 -43 0 -35 12 -50 40 -50 18 0 40 33 40
60 0 34 -29 49 -67 33z m37 -23 c0 -5 -4 -10 -10 -10 -5 0 -10 5 -10 10 0 6 5
10 10 10 6 0 10 -4 10 -10z m0 -40 c0 -5 -4 -10 -10 -10 -5 0 -10 5 -10 10 0
6 5 10 10 10 6 0 10 -4 10 -10z"/>
<path d="M514 345 c-11 -48 -3 -68 15 -38 10 17 12 17 21 1 14 -24 85 -26 76
-3 -8 22 3 18 24 -7 17 -22 18 -22 16 22 -2 57 -10 70 -46 70 -27 0 -29 -3
-32 -42 -4 -43 -11 -38 -22 15 -10 45 -40 35 -52 -18z m131 15 c3 -5 -1 -10
-9 -10 -9 0 -16 5 -16 10 0 6 4 10 9 10 6 0 13 -4 16 -10z m-95 -10 c0 -5 -5
-10 -11 -10 -5 0 -7 5 -4 10 3 6 8 10 11 10 2 0 4 -4 4 -10z"/>
<path d="M703 383 c-7 -2 -13 -22 -13 -43 0 -35 12 -50 40 -50 18 0 40 33 40
60 0 34 -29 49 -67 33z m37 -23 c0 -5 -4 -10 -10 -10 -5 0 -10 5 -10 10 0 6 5
10 10 10 6 0 10 -4 10 -10z m0 -40 c0 -5 -4 -10 -10 -10 -5 0 -10 5 -10 10 0
6 5 10 10 10 6 0 10 -4 10 -10z"/>
<path d="M780 339 l0 -50 32 3 c17 2 33 9 36 16 3 9 -3 11 -22 6 -16 -4 -26
-2 -26 5 0 6 9 11 20 11 11 0 20 5 20 10 0 6 -9 10 -20 10 -11 0 -20 5 -20 10
0 6 11 8 25 4 20 -5 24 -3 19 10 -4 10 -18 16 -35 16 -28 0 -29 -1 -29 -51z"/>
<path d="M858 340 c3 -35 8 -50 18 -50 10 0 14 14 14 50 0 41 -3 50 -17 50
-15 0 -17 -8 -15 -50z"/>
<path d="M910 356 c0 -19 -3 -41 -6 -50 -5 -12 0 -16 21 -16 20 0 26 4 21 15
-8 22 3 18 24 -7 18 -22 18 -22 16 23 -3 57 -10 69 -47 69 -26 0 -29 -3 -29
-34z m55 4 c3 -5 -1 -10 -9 -10 -9 0 -16 5 -16 10 0 6 4 10 9 10 6 0 13 -4 16
-10z"/>
<path d="M1004 365 c-23 -35 -6 -75 30 -75 43 0 64 70 27 90 -29 15 -39 13
-57 -15z m45 -41 c-14 -14 -17 -14 -29 0 -10 13 -10 19 0 32 12 14 15 14 29 0
14 -15 14 -17 0 -32z"/>
</g>
</svg>
